# AST/ASF file generated using VICON BodyLanguage
# -----------------------------------------------
:version 1.10
:name VICON
:units
  mass 1.0
  length 0.45
  angle deg
:documentation
   .ast/.asf automatically generated from VICON data using
   VICON BodyBuilder and BodyLanguage model FoxedUp or BRILLIANT.MOD
:root
   order TX TY TZ RX RY RZ
   axis XYZ
   position 0 0 0  
   orientation 0 0 0 
:bonedata
  begin
     id 1 
     name lhipjoint
     direction 0.700308 -0.549349 0.455834 
     length 2.59063 
     axis 0 0 0  XYZ
  end
  begin
     id 2 
     name lfemur
     direction 0.34202 -0.939693 0  
     length 6.31066  
     axis 0 0 20  XYZ
    dof rx ry rz
    limits (-160.0 20.0)
           (-70.0 70.0)
           (-60.0 70.0)
  end
  begin
     id 3 
     name ltibia
     direction 0.34202 -0.939693 0   
     length 7.36093   
     axis 0 0 20   XYZ
    dof rx
    limits (-10.0 170.0)
  end
  begin
     id 4 
     name lfoot
     direction 0.0905332 -0.248738 0.96433   
     length 2.0233   
     axis -90 7.62852e-016 20   XYZ
    dof rx rz
    limits (-45.0 90.0)
           (-70.0 20.0)
  end
  begin
     id 5 
     name ltoes
     direction 1.53573e-011 -4.21855e-011 1   
     length 1.01524   
     axis -90 7.62852e-016 20   XYZ
    dof rx
    limits (-90.0 20.0)
  end
  begin
     id 6 
     name rhipjoint
     direction -0.61416 -0.607328 0.503944   
     length 2.34332  
     axis 0 0 0  XYZ 
  end
  begin
     id 7 
     name rfemur
     direction -0.34202 -0.939693 0   
     length 6.58548   
     axis 0 0 -20   XYZ
    dof rx ry rz
    limits (-160.0 20.0)
           (-70.0 70.0)
           (-70.0 60.0)
  end
  begin
     id 8 
     name rtibia
     direction -0.34202 -0.939693 0   
     length 7.20707   
     axis 0 0 -20   XYZ
    dof rx
    limits (-10.0 170.0)
 end
 begin
     id 9 
     name rfoot
     direction -0.136772 -0.375778 0.916561   
     length 1.92184  
     axis -90 -7.62852e-016 -20   XYZ
    dof rx rz
    limits (-45.0 90.0)
           (-20.0 70.0)
  end
  begin
     id 10 
     name rtoes
     direction -1.53535e-011 -4.21828e-011 1   
     length 0.951089   
     axis -90 -7.62852e-016 -20   XYZ
    dof rx
    limits (-90.0 20.0)
  end
  begin
     id 11 
     name lowerback
     direction -0.0444974 0.988086 -0.147332   
     length 1.9609   
     axis 0 0 0   XYZ
    dof rx ry rz
    limits (-20.0 45.0)
           (-30.0 30.0)
           (-30.0 30.0)
  end
  begin
     id 12 
     name upperback
     direction 0.00613146 0.999513 0.0306081   
     length 1.94944   
     axis 0 0 0   XYZ
    dof rx ry rz
    limits (-20.0 45.0)
           (-30.0 30.0)
           (-30.0 30.0)
  end
  begin
     id 13 
     name thorax
     direction 0.0254621 0.994518 0.101418   
     length 2.0119   
     axis 0 0 0   XYZ
    dof rx ry rz
    limits (-20.0 45.0)
           (-30.0 30.0)
           (-30.0 30.0)
  end
  begin
     id 14 
     name lowerneck
     direction 0.0168698 0.977854 0.208608   
     length 1.6375   
     axis 0 0 0   XYZ
    dof rx ry rz
    limits (-20.0 45.0)
           (-30.0 30.0)
           (-30.0 30.0)
  end
  begin
     id 15 
     name upperneck
     direction -0.0283988 0.989338 -0.142843   
     length 1.6851   
     axis 0 0 0   XYZ
    dof rx ry rz
    limits (-20.0 45.0)
           (-30.0 30.0)
           (-30.0 30.0)
  end
  begin
     id 16
     name head
     direction -0.0129422 0.99741 -0.0707489  
     length 1.69029  
     axis 0 0 0   XYZ
    dof rx ry rz
    limits (-20.0 45.0)
           (-30.0 30.0)
           (-30.0 30.0)
  end
  begin
     id 17 
     name lclavicle
     direction 0.820295 0.564628 -0.0911715  
     length 3.16484  
     axis 0 0 0   XYZ
    dof ry rz
    limits (-20.0 10.0)
           (0.0 20.0)
  end
  begin
     id 18 
     name lhumerus
     direction 1 -4.48969e-011 1.00186e-027   
     length 5.17853   
     axis 180 -30 -90   XYZ
    dof rx ry rz
    limits (-60.0 90.0)
           (-90.0 90.0)
           (-90.0 90.0)
  end
  begin
     id 19
     name lradius
     direction 1 -4.48966e-011 -1.52922e-027   
     length 3.40399   
     axis 180 -30 -90   XYZ
    dof rx
    limits (-10.0 170.0)
  end
  begin
     id 20
     name lwrist
     direction 1 -4.48981e-011 -3.80893e-027   
     length 1.70199   
     axis 1.1049e-015 90 90   XYZ
    dof ry
    limits (-180.0 0.0)
 end
  begin
     id 21 
     name lhand
     direction 1 -4.48957e-011 -7.61786e-027   
     length 0.708964   
     axis 4.86085e-015 90 90   XYZ
    dof rx rz
    limits (-90.0 90.0)
           (-45.0 45.0)
  end
  begin
     id 22 
     name lfingers
     direction 1 -4.48929e-011 -1.52357e-026   
     length 0.571585   
     axis 9.7217e-015 90 90   XYZ
    dof rx
    limits (0.0 90.0)
  end
  begin
     id 23
     name lthumb
     direction 0.707107 -6.34905e-011 0.707107   
     length 0.820685   
     axis -90 45 2.85299e-015   XYZ
    dof rx rz
    limits (-45.0 45.0)
           (-45.0 45.0)
  end
  begin
     id 24 
     name rclavicle
     direction -0.858602 0.463947 -0.218075   
     length 3.35137  
     axis 0 0 0   XYZ 
    dof ry rz
    limits (-10.0 20.0)
           (-20.0 0.0)
  end
  begin
     id 25 
     name rhumerus
     direction -1 -4.48969e-011 -1.98511e-027  
     length 5.42351   
     axis 180 30 90   XYZ
    dof rx ry rz
    limits (-90.0 60.0)
           (-90.0 90.0)
           (-90.0 90.0)
  end
  begin
     id 26 
     name rradius
     direction -1 -4.48961e-011 -2.82624e-027   
     length 3.42066   
     axis 180 30 90   XYZ
    dof rx
    limits (-10.0 170.0)
  end
  begin
     id 27 
     name rwrist
     direction -1 -4.48966e-011 -3.80893e-027   
     length 1.71033   
     axis 1.1049e-015 -90 -90   XYZ
    dof ry
    limits (-180.0 0.0)
  end
  begin
     id 28
     name rhand
     direction -1 -4.48964e-011 -7.61786e-027   
     length 0.743608   
     axis 4.86085e-015 -90 -90   XYZ
    dof rx rz
    limits (-90.0 90.0)
           (-45.0 45.0)
  end
  begin
     id 29
     name rfingers
     direction -1 -4.48961e-011 -1.52357e-026   
     length 0.599516   
     axis 9.7217e-015 -90 -90   XYZ
    dof rx
    limits (0.0 90.0)
  end
  begin
     id 30
     name rthumb
     direction -0.707107 -6.34913e-011 0.707107   
     length 0.860789   
     axis -90 -45 -2.85299e-015   XYZ
    dof rx rz
    limits (-45.0 45.0)
           (-45.0 45.0)
  end
:hierarchy
  begin
    root lhipjoint rhipjoint lowerback
    lhipjoint lfemur
    lfemur ltibia
    ltibia lfoot
    lfoot ltoes
    rhipjoint rfemur
    rfemur rtibia
    rtibia rfoot
    rfoot rtoes
    lowerback upperback
    upperback thorax
    thorax lowerneck lclavicle rclavicle
    lowerneck upperneck
    upperneck head
    lclavicle lhumerus
    lhumerus lradius
    lradius lwrist
    lwrist lhand lthumb
    lhand lfingers
    rclavicle rhumerus
    rhumerus rradius
    rradius rwrist
    rwrist rhand rthumb
    rhand rfingers
  end

#!OML:ASF E:\mmandel\Project 1\Capture day 1\Session 2\Subject.ASF
:FULLY-SPECIFIED
:DEGREES
820
root 7.41897 14.1662 -1.15246 75.142 84.2176 55.1935
lowerback 29.992 0.255801 0.102942
upperback 3.92665 0.762737 0.281897
thorax -12.1486 0.498067 -0.067281
lowerneck -16.9781 0.512982 0.962636
upperneck -2.08078 0.977418 -5.77785
head 2.32846 0.386644 -1.99991
rclavicle -1.51076e-014 -1.11319e-014
rhumerus -2.34831 1.90609 -76.3959
rradius 60.3358
rwrist -371.583
rhand -17.6039 37.6638
rfingers 7.12502
rthumb 8.65261 7.86108
lclavicle -1.51076e-014 -1.11319e-014
lhumerus -10.0987 -10.8632 61.5053
lradius 80.2381
lwrist 35.5109
lhand -24.5921 -36.9779
lfingers 7.12502
lthumb 1.90549 -7.00663
rfemur -64.9509 -12.1916 8.01451
rtibia 72.9659
rfoot -28.3216 -2.8251
rtoes -16.7282
lfemur -58.9208 19.6465 -18.5572
ltibia 66.9395
lfoot -23.2012 -5.13868
ltoes -9.63795
821
root 7.42383 14.1627 -1.19941 71.5189 84.3985 51.5285
lowerback 29.9659 0.291749 0.140148
upperback 3.89825 0.82272 0.326734
thorax -12.1689 0.522946 -0.0604764
lowerneck -17.0585 0.534043 1.11516
upperneck -2.04303 0.978898 -5.82426
head 2.35878 0.382787 -2.04449
rclavicle -5.56597e-015 4.77083e-015
rhumerus -2.75474 1.89488 -76.4584
rradius 60.331
rwrist -371.625
rhand -17.699 37.3671
rfingers 7.12502
rthumb 8.56081 7.56067
lclavicle -5.56597e-015 4.77083e-015
lhumerus -9.69208 -10.9398 61.3407
lradius 79.8331
lwrist 35.4443
lhand -24.5055 -36.875
lfingers 7.12502
lthumb 1.98914 -6.90454
rfemur -64.9907 -11.9772 8.1895
rtibia 72.837
rfoot -28.1885 -2.90119
rtoes -17.0802
lfemur -59.1206 19.8789 -18.422
ltibia 67.274
lfoot -23.3386 -4.94276
ltoes -9.9786
822
root 7.42773 14.1545 -1.24641 68.3449 84.4325 48.3271
lowerback 29.8926 0.337953 0.0760511
upperback 3.91651 0.859441 0.324145
thorax -12.1109 0.542138 -0.0396484
lowerneck -17.2117 0.55689 1.01832
upperneck -1.92536 1.02357 -5.61957
head 2.42437 0.407489 -1.9567
rclavicle -1.59028e-015 1.43125e-014
rhumerus -3.20225 1.72785 -76.5498
rradius 60.4585
rwrist -371.563
rhand -17.936 36.9794
rfingers 7.12502
rthumb 8.33214 7.16371
lclavicle -1.59028e-015 1.43125e-014
lhumerus -9.11122 -11.0406 61.1358
lradius 79.3314
lwrist 35.3854
lhand -24.5291 -36.9071
lfingers 7.12502
lthumb 1.96634 -6.93646
rfemur -65.0463 -11.797 8.20399
rtibia 72.7426
rfoot -28.0959 -2.88075
rtoes -17.1288
lfemur -59.2841 19.9668 -18.385
ltibia 67.6087
lfoot -23.4566 -4.75178
ltoes -9.70314
823
root 7.43224 14.1485 -1.29035 66.5182 84.4595 46.5054
lowerback 29.8402 0.342145 -0.018801
upperback 3.97487 0.8353 0.311225
thorax -12.0168 0.536623 0.0107463
lowerneck -17.1405 0.760235 0.858836
upperneck -2.02053 1.31387 -5.42918
head 2.38342 0.563323 -1.84028
rclavicle -1.11319e-014 -3.10104e-014
rhumerus -3.59046 1.52381 -76.6783
rradius 60.6233
rwrist -371.553
rhand -18.0182 36.951
rfingers 7.12502
rthumb 8.25275 7.13217
lclavicle -1.11319e-014 -3.10104e-014
lhumerus -8.55583 -11.071 60.9135
lradius 78.9775
lwrist 35.241
lhand -24.5892 -36.8106
lfingers 7.12502
lthumb 1.90828 -6.83937
rfemur -65.0357 -11.7426 8.15433
rtibia 72.6613
rfoot -27.9963 -2.84732
rtoes -17.2884
lfemur -59.4238 19.9866 -18.4176
ltibia 67.9271
lfoot -23.5954 -4.62699
ltoes -9.41268
824
root 7.43816 14.1469 -1.33557 64.3534 84.5457 44.3108
lowerback 29.7783 0.334493 -0.0535275
upperback 4.01609 0.818851 0.335052
thorax -11.9379 0.532141 0.0654541
lowerneck -17.5835 0.655188 1.04843
upperneck -2.04887 1.14493 -5.39353
head 2.45006 0.477365 -1.87805
rclavicle 5.96354e-015 -1.59028e-015
rhumerus -3.98527 1.39208 -76.7662
rradius 60.7574
rwrist -371.576
rhand -17.9315 37.1367
rfingers 7.12502
rthumb 8.33642 7.32121
lclavicle 5.96354e-015 -1.59028e-015
lhumerus -8.06314 -11.0439 60.7794
lradius 78.6199
lwrist 35.0896
lhand -24.5224 -36.5201
lfingers 7.12502
lthumb 1.97284 -6.54949
rfemur -65.0278 -11.6838 8.17339
rtibia 72.5682
rfoot -27.8756 -2.80487
rtoes -17.286
lfemur -59.6025 20.0725 -18.4208
ltibia 68.2334
lfoot -23.7516 -4.44181
ltoes -9.90407
825
root 7.44023 14.1379 -1.38421 61.6072 84.6207 41.4929
lowerback 29.7602 0.333685 -0.071589
upperback 3.99029 0.810614 0.346383
thorax -11.9591 0.528226 0.0923594
lowerneck -17.5046 0.746974 1.225
upperneck -2.15952 1.22996 -5.45656
head 2.40387 0.520111 -1.92354
rclavicle -1.51076e-014 -3.26007e-014
rhumerus -4.4485 1.31269 -76.8963
rradius 60.8487
rwrist -371.595
rhand -17.9239 37.2775
rfingers 7.12502
rthumb 8.34374 7.46225
lclavicle -1.51076e-014 -3.26007e-014
lhumerus -7.53672 -11.1137 60.5715
lradius 78.1304
lwrist 35.0201
lhand -24.4127 -36.2143
lfingers 7.12502
lthumb 2.07877 -6.24472
rfemur -65.1247 -11.6445 8.23924
rtibia 72.5086
rfoot -27.7627 -2.75632
rtoes -17.3583
lfemur -59.8854 20.2039 -18.4086
ltibia 68.5932
lfoot -23.8531 -4.54121
ltoes -9.21853
826
root 7.43929 14.1301 -1.43192 60.1941 84.5164 39.9651
lowerback 29.7396 0.351567 -0.231896
upperback 3.93369 0.766172 0.260336
thorax -12.0148 0.510912 0.104076
lowerneck -17.5567 0.742177 1.41808
upperneck -2.15 1.18378 -5.4469
head 2.41736 0.495139 -1.9596
rclavicle -2.62396e-014 -3.93594e-014
rhumerus -4.83977 1.05189 -77.1354
rradius 60.7807
rwrist -371.531
rhand -17.9575 37.5501
rfingers 7.12502
rthumb 8.31132 7.73361
lclavicle -2.62396e-014 -3.93594e-014
lhumerus -6.99894 -11.2352 60.3358
lradius 77.689
lwrist 34.9592
lhand -24.2402 -35.8445
lfingers 7.12502
lthumb 2.24535 -5.87659
rfemur -65.3001 -11.6742 8.09925
rtibia 72.4459
rfoot -27.6265 -2.74947
rtoes -17.8168
lfemur -60.2106 20.3011 -18.6464
ltibia 68.9499
lfoot -23.9673 -4.71716
ltoes -7.86708
827
root 7.44114 14.1268 -1.47475 59.1678 84.4559 38.9007
lowerback 29.7425 0.378502 -0.39557
upperback 3.92565 0.741866 0.216103
thorax -12.0265 0.505782 0.157684
lowerneck -17.6446 0.673419 1.42287
upperneck -2.23368 1.08631 -5.32238
head 2.39851 0.452534 -1.92557
rclavicle -2.78299e-015 -7.95139e-015
rhumerus -5.21941 0.660953 -77.3155
rradius 60.7393
rwrist -371.387
rhand -17.9076 37.7915
rfingers 7.12502
rthumb 8.3595 7.97691
lclavicle -2.78299e-015 -7.95139e-015
lhumerus -6.46805 -11.2686 60.2388
lradius 77.3421
lwrist 34.9508
lhand -23.9654 -35.4022
lfingers 7.12502
lthumb 2.51081 -5.43727
rfemur -65.3173 -11.6276 7.92938
rtibia 72.3477
rfoot -27.525 -2.74839
rtoes -18.145
lfemur -60.4067 20.3535 -18.8262
ltibia 69.2654
lfoot -24.1817 -4.62637
ltoes -7.89421
828
root 7.44859 14.1239 -1.52054 56.8575 84.5699 36.6638
lowerback 29.8281 0.357219 -0.342784
upperback 3.93786 0.734337 0.228421
thorax -12.0555 0.500813 0.143342
lowerneck -17.5238 0.793452 1.43948
upperneck -2.39892 1.23786 -5.30343
head 2.32492 0.534286 -1.90834
rclavicle 1.11319e-014 1.51076e-014
rhumerus -5.62871 0.438241 -77.431
rradius 60.7336
rwrist -371.353
rhand -17.9861 37.8859
rfingers 7.12502
rthumb 8.28373 8.06834
lclavicle 1.11319e-014 1.51076e-014
lhumerus -6.02468 -11.3325 60.1175
lradius 76.9948
lwrist 34.8874
lhand -23.8482 -34.989
lfingers 7.12502
lthumb 2.62392 -5.02536
rfemur -65.1261 -11.5818 7.95929
rtibia 72.2121
rfoot -27.4458 -2.63342
rtoes -18.0513
lfemur -60.4358 20.3463 -18.709
ltibia 69.5802
lfoot -24.4 -4.55107
ltoes -7.69817
829
root 7.45706 14.1251 -1.57018 53.757 84.6715 33.5636
lowerback 29.8779 0.311019 -0.175456
upperback 3.894 0.719189 0.185004
thorax -12.1299 0.483539 0.00183917
lowerneck -17.4312 0.928764 1.65824
upperneck -2.52823 1.37382 -5.38275
head 2.27319 0.602156 -1.96319
rclavicle 1.27222e-014 1.19271e-014
rhumerus -6.02544 0.334849 -77.6029
rradius 60.6405
rwrist -371.441
rhand -18.1836 37.7959
rfingers 7.12502
rthumb 8.09318 7.97083
lclavicle 1.27222e-014 1.19271e-014
lhumerus -5.62963 -11.5074 59.9005
lradius 76.6167
lwrist 34.7648
lhand -23.7784 -34.4238
lfingers 7.12502
lthumb 2.69133 -4.46103
rfemur -64.9938 -11.611 8.08773
rtibia 72.0276
rfoot -27.323 -2.42522
rtoes -17.8223
lfemur -60.5378 20.4002 -18.6072
ltibia 69.8763
lfoot -24.5852 -4.48213
ltoes -7.34911
830
root 7.46021 14.1197 -1.61591 51.7211 84.6547 31.4097
lowerback 29.7837 0.323024 -0.183578
upperback 3.85921 0.720859 0.13667
thorax -12.1218 0.481465 -0.0486042
lowerneck -17.2373 0.984649 1.64074
upperneck -2.73477 1.43907 -5.20292
head 2.16597 0.647526 -1.89181
rclavicle -4.77083e-015 -2.3059e-014
rhumerus -6.50428 0.18584 -77.6825
rradius 60.737
rwrist -371.529
rhand -18.2501 37.5599
rfingers 7.12502
rthumb 8.02896 7.7324
lclavicle -4.77083e-015 -2.3059e-014
lhumerus -5.10436 -11.6447 59.7889
lradius 76.2148
lwrist 34.6681
lhand -23.5287 -33.6004
lfingers 7.12502
lthumb 2.93252 -3.64078
rfemur -65.0692 -11.6296 8.09572
rtibia 71.8629
rfoot -27.1754 -2.36396
rtoes -17.9978
lfemur -60.8548 20.5491 -18.7429
ltibia 70.1728
lfoot -24.7457 -4.44389
ltoes -7.19403
831
root 7.46201 14.1113 -1.65872 49.5669 84.5645 29.2117
lowerback 29.709 0.403379 -0.369404
upperback 3.88524 0.768154 0.162867
thorax -12.0557 0.512181 0.071781
lowerneck -17.2437 0.962194 1.498
upperneck -2.80204 1.42931 -5.00855
head 2.13792 0.651804 -1.80085
rclavicle 9.93923e-015 2.50469e-014
rhumerus -6.98172 0.0443188 -77.6058
rradius 60.8939
rwrist -371.548
rhand -18.1935 37.6806
rfingers 7.12502
rthumb 8.08356 7.85523
lclavicle 9.93923e-015 2.50469e-014
lhumerus -4.56127 -11.7711 59.7745
lradius 75.7517
lwrist 34.5341
lhand -23.3685 -32.9933
lfingers 7.12502
lthumb 3.08725 -3.03586
rfemur -65.1042 -11.5347 8.03439
rtibia 71.7108
rfoot -27.0498 -2.3211
rtoes -18.0364
lfemur -61.058 20.7099 -18.8492
ltibia 70.4759
lfoot -24.8955 -4.5241
ltoes -6.17423
